<svg width="128" height="128" xmlns="http://www.w3.org/2000/svg">
 <g>
  <title>background</title>
  <rect x="-1" y="-1" width="130" height="130" id="canvas_background" fill="none"/>
 </g>

 <g>
  <title>Layer 1</title>
  <ellipse ry="48" rx="48" id="svg_2" cy="64" cx="64" stroke-width="1.5" stroke="#000" fill="#000000"/>
  <g id="svg_1">
   <path stroke-width="0.3" fill="#ffffff" d="m51.277142,73.399276m14.677907,-45.08644c0.060155,-0.030078 0.120311,-0.030078 0.210544,-0.030078c0.360932,0 0.78202,0.300777 1.383573,1.052719c2.436292,2.797224 4.15072,7.669808 4.15072,11.640062c0,0.300777 -0.060155,0.541398 -0.060155,0.842175c-0.270699,4.722196 -2.195671,8.602216 -6.015536,12.271693l-1.022641,0.992563l-0.360932,0.39101l0,0.120311l0.210544,0.90233l0.330854,1.624195l0.330854,1.503884c0.451165,2.045282 0.631631,3.098001 0.631631,3.098001c0,0 0,0 0,0c0,0 0.120311,0 0.270699,-0.030078c0.150388,0 0.631631,-0.060155 1.142952,-0.060155c0.360932,0 0.721864,0.060155 0.90233,0.060155c4.240953,0.541398 7.51942,3.579244 8.451828,7.850274c0.180466,0.691787 0.240621,1.443729 0.240621,2.195671c0,4.060487 -2.436292,7.940507 -6.496779,9.775246c-0.240621,0.150388 -0.330854,0.180466 -0.330854,0.180466l0,0.030078c0,0 0.180466,0.691787 0.330854,1.473806l0.451165,2.285904l0.421088,1.834738c0.240621,1.173029 0.360932,2.015204 0.360932,2.767146c0,0.661709 -0.090233,1.263263 -0.240621,1.955049c-1.022641,4.180797 -4.66204,6.677245 -8.451828,6.677245c-1.864816,0 -3.789788,-0.601554 -5.474138,-1.955049c-1.503884,-1.263263 -2.165593,-2.406214 -2.165593,-3.910098c0,-2.646836 2.135515,-4.511652 4.361263,-4.511652c0.78202,0 1.564039,0.240621 2.315981,0.691787c1.263263,0.872253 1.834738,2.195671 1.834738,3.489011c0,1.985127 -1.383573,3.940176 -3.75971,4.090564l-0.240621,0l0.180466,0.120311c0.992563,0.421088 1.985127,0.631631 2.947613,0.631631c2.436292,0 4.722196,-1.233185 6.105769,-3.3687c0.78202,-1.203107 1.203107,-2.616758 1.203107,-4.030409c0,-0.541398 -0.090233,-1.082796 -0.210544,-1.68435c0,-0.060155 -0.090233,-0.541398 -0.210544,-0.992563c-0.661709,-3.248389 -1.052719,-5.143283 -1.052719,-5.143283c0,0 0,0 0,0c-0.060155,0 -0.180466,0 -0.270699,0.060155c-0.300777,0.060155 -0.932408,0.210544 -1.203107,0.240621c-0.661709,0.090233 -1.29334,0.120311 -1.894894,0.120311c-5.895225,0 -11.369363,-3.970254 -13.264256,-9.835401c-0.481243,-1.564039 -0.751942,-3.128079 -0.751942,-4.692118c0,-3.128079 0.992563,-6.196002 2.917535,-8.933071c2.105438,-2.97769 4.210875,-5.534293 6.797555,-8.181129l0.90233,-0.932408l-0.210544,-1.112874l-0.39101,-1.834738l-0.511321,-2.346059c-0.150388,-0.872253 -0.330854,-1.714428 -0.360932,-1.894894c-0.150388,-0.992563 -0.240621,-1.955049 -0.240621,-2.947613c0,-3.789788 1.233185,-7.429187 3.549166,-10.346721c0.691787,-0.90233 1.924971,-2.105438 2.255826,-2.195671m1.834738,5.95538c-0.060155,0 -0.150388,0 -0.240621,0c-1.233185,0 -2.827302,1.142952 -3.910098,2.827302c-1.112874,1.654272 -1.68435,3.849943 -1.68435,6.105769c0,0.601554 0.030078,1.233185 0.120311,1.864816c0.090233,0.451165 0.120311,0.751942 0.360932,1.834738l0.421088,1.894894c0.120311,0.571476 0.210544,1.022641 0.210544,1.082796l0,0c0.030078,0 0.962486,-1.022641 1.263263,-1.383573c3.007768,-3.398778 4.812429,-6.978021 5.203438,-10.136178c0.030078,-0.300777 0.030078,-0.541398 0.030078,-0.842175c0,-0.932408 -0.120311,-1.834738 -0.330854,-2.315981c-0.240621,-0.481243 -0.78202,-0.872253 -1.443729,-0.932408m-4.541729,23.250046c-0.060155,-0.421088 -0.150388,-0.751942 -0.150388,-0.812097c0,0 0,0 -0.030078,0c-0.060155,0 -1.353496,1.503884 -2.255826,2.556603c-1.533962,1.864816 -3.158156,4.090564 -3.819865,5.173361c-1.263263,2.135515 -1.894894,4.511652 -1.894894,6.857711c0,1.533962 0.300777,3.007768 0.842175,4.421419c1.624195,4.180797 5.353827,6.797555 9.414313,6.797555c0.481243,0 1.022641,-0.030078 1.533962,-0.120311c0.661709,-0.120311 1.473806,-0.360932 1.473806,-0.451165l0,0c0,0 -0.060155,-0.300777 -0.150388,-0.631631l-0.872253,-4.301108l-0.691787,-3.218312l-0.451165,-2.225748l-0.481243,-2.165593c-0.240621,-1.29334 -0.330854,-1.624195 -0.330854,-1.624195c0,0 0,-0.030078 -0.030078,-0.030078c-0.180466,0 -1.142952,0.481243 -1.564039,0.78202c-1.564039,1.082796 -2.376137,2.797224 -2.376137,4.481574c0,1.594117 0.78202,3.188234 2.285904,4.120642c0.330854,0.210544 0.451165,0.39101 0.451165,0.601554c0,0.030078 0,0.120311 0,0.150388c-0.060155,0.360932 -0.270699,0.511321 -0.571476,0.511321c-0.120311,0 -0.270699,-0.030078 -0.451165,-0.120311c-2.767146,-1.203107 -4.631963,-4.060487 -4.631963,-7.188565l0,0c0,-3.609321 2.255826,-6.7374 5.714759,-7.970585l0.180466,-0.060155l-0.300777,-1.503884l-0.842175,-4.030409m4.511652,10.045945c-0.240621,-0.030078 -0.481243,-0.030078 -0.661709,-0.030078c-0.060155,0 -0.150388,0 -0.210544,0l-0.150388,0l0.120311,0.541398l0.631631,2.947613l0.39101,1.924971l0.421088,1.894894l0.842175,4.180797l0.330854,1.594117c0.120311,0.421088 0.180466,0.78202 0.210544,0.78202c0,0 0,0 0,0c0.030078,0 0.541398,-0.300777 0.872253,-0.541398c1.533962,-1.082796 2.676913,-2.767146 3.098001,-4.511652c0.150388,-0.571476 0.210544,-1.173029 0.210544,-1.744505c0,-3.489011 -2.58668,-6.647167 -6.105769,-7.038177" id="svg_8"/>
  </g>
 </g>
</svg>